<svg width="200" height="200" viewBox="0 0 200 200" xmlns="http://www.w3.org/2000/svg">
  <rect width="200" height="200" rx="40" fill="#0e1730"/>
  <circle cx="100" cy="103" r="62" fill="#7d1620"/>
  <circle cx="100" cy="103" r="62" fill="#9e1b22" opacity="0.45"/>
  <path d="M100 133 C100 133 48 98 48 66 C48 44 70 34 84 47 C91 54 100 66 100 66 C100 66 109 54 116 47 C130 34 152 44 152 66 C152 98 100 133 100 133 Z" fill="#F2C94C"/>
  <path d="M100 133 C100 133 48 98 48 66 C48 44 70 34 84 47 C91 54 100 66 100 66 C100 66 109 54 116 47 C130 34 152 44 152 66 C152 98 100 133 100 133 Z" fill="#E8B53A" opacity="0.4"/>
  <ellipse cx="78" cy="66" rx="14" ry="9" fill="#fff" opacity="0.22"/>
</svg>
